<svg width="407" height="223" viewBox="0 0 407 223" fill="none" xmlns="http://www.w3.org/2000/svg">
<path d="M324.576 183.09C296.513 200.353 260.805 208.955 225.684 215.075C190.564 221.195 156.116 224.832 123.096 219.925C90.1599 215.018 58.6523 201.565 36.0509 182.397C13.4495 163.287 -0.245819 138.519 -1.84219 112.943C-3.43857 87.3663 7.06396 61.0393 30.5896 43.8922C54.1152 26.745 90.664 18.7776 125.28 14.6207C159.813 10.5216 192.412 10.2329 242.993 6.19147C293.657 2.15004 362.217 -5.70186 390.364 11.6185C418.427 28.9389 405.992 71.3161 389.524 105.553C373.14 139.789 352.723 165.77 324.576 183.09Z" fill="#303333"/>
</svg>
