<svg width="395" height="237" viewBox="0 0 395 237" fill="none" xmlns="http://www.w3.org/2000/svg">
<path d="M314.968 194.637C287.957 213.071 253.588 222.257 219.784 228.792C185.981 235.327 152.824 239.212 121.042 233.971C89.3416 228.731 59.0155 214.366 37.2616 193.897C15.5077 173.49 2.32597 147.041 0.789445 119.729C-0.747076 92.4168 9.36162 64.3032 32.0051 45.9924C54.6486 27.6816 89.8268 19.1736 123.145 14.7346C156.382 10.3573 187.76 10.049 236.443 5.73331C285.208 1.41763 351.197 -6.96711 378.289 11.5287C405.299 30.0244 393.33 75.2774 377.48 111.837C361.71 148.397 342.059 176.141 314.968 194.637Z" fill="#303333"/>
</svg>
