<svg width="47" height="47" viewBox="0 0 47 47" fill="none" xmlns="http://www.w3.org/2000/svg">
<path fill-rule="evenodd" clip-rule="evenodd" d="M16.2853 12.9986C16.2853 9.37224 19.8911 6.36491 23.6816 6.36491C27.4721 6.36491 31.0778 9.37224 31.0778 12.9986C31.0778 16.3494 29.3783 17.9224 27.093 19.9491L26.9985 20.0328C24.7331 22.0408 21.9278 24.5274 21.9278 29.4686C21.9278 30.4372 22.713 31.2223 23.6816 31.2223C24.6501 31.2223 25.4353 30.4372 25.4353 29.4686C25.4353 26.1599 27.1263 24.6076 29.4202 22.5733L29.4837 22.517C31.7627 20.4964 34.5852 17.9937 34.5852 12.9986C34.5852 6.98269 28.9234 2.85742 23.6816 2.85742C18.4397 2.85742 12.7778 6.98269 12.7778 12.9986C12.7778 13.9672 13.563 14.7524 14.5316 14.7524C15.5001 14.7524 16.2853 13.9672 16.2853 12.9986ZM23.6816 41.234C25.1555 41.234 26.3503 40.039 26.3503 38.5652C26.3503 37.0912 25.1555 35.8965 23.6816 35.8965C22.2077 35.8965 21.0128 37.0912 21.0128 38.5652C21.0128 40.039 22.2077 41.234 23.6816 41.234Z" fill="black"/>
</svg>
