<svg width="50" height="51" viewBox="0 0 50 51" fill="none" xmlns="http://www.w3.org/2000/svg">
<path fill-rule="evenodd" clip-rule="evenodd" d="M24.8002 3.02539C19.5269 3.02268 14.4249 4.89718 10.4076 8.31323C6.39042 11.7293 3.72037 16.4638 2.87562 21.6689C2.03087 26.8741 3.06657 32.21 5.79728 36.7212C8.52798 41.2324 12.7754 44.6242 17.7788 46.2893C18.894 46.4958 19.2967 45.8144 19.2967 45.2568C19.2967 44.6992 19.2967 43.3362 19.2967 41.488C13.1014 42.8303 11.821 38.5142 11.821 38.5142C11.4112 37.1486 10.5196 35.9782 9.31191 35.2204C7.29844 33.8471 9.46679 33.8677 9.46679 33.8677C10.1701 33.9662 10.8417 34.2238 11.4304 34.621C12.0191 35.0183 12.5094 35.5446 12.8639 36.16C14.8464 39.5571 18.0267 38.5762 19.3277 38.0083C19.4304 36.8803 19.932 35.8259 20.7423 35.0345C15.8067 34.4769 10.6233 32.577 10.6233 24.0688C10.5905 21.8616 11.4118 19.7271 12.9155 18.111C12.2323 16.1971 12.31 14.094 13.1324 12.2358C13.1324 12.2358 14.9909 11.6369 19.2347 14.5074C22.8718 13.5161 26.7079 13.5161 30.345 14.5074C34.5888 11.6369 36.4474 12.2358 36.4474 12.2358C37.2635 14.0955 37.3411 16.1962 36.6642 18.111C38.1651 19.7281 38.9827 21.8628 38.9462 24.0688C38.9462 32.5977 33.7834 34.4666 28.8168 35.0242C29.3497 35.5641 29.7602 36.2125 30.0203 36.9251C30.2804 37.6378 30.3841 38.3981 30.3243 39.1544C30.3243 42.1178 30.3243 44.5133 30.3243 45.2464C30.3243 45.9796 30.727 46.5268 31.8525 46.279C36.8509 44.6074 41.0915 41.212 43.8158 36.7003C46.5401 32.1885 47.5703 26.8546 46.7222 21.6528C45.874 16.451 43.2029 11.7207 39.1865 8.30793C35.1702 4.89518 30.0707 3.02268 24.8002 3.02539Z" stroke="black" stroke-width="1.98568" stroke-linecap="round" stroke-linejoin="round"/>
</svg>
