<svg width="27" height="27" viewBox="0 0 27 27" fill="none" xmlns="http://www.w3.org/2000/svg">
<g clip-path="url(#clip0_257_4612)">
<path d="M23.6273 19.6753L13.3748 9.42292C12.3539 8.40197 9.32327 7.92912 8.64622 8.60616C7.96918 9.28321 8.43129 12.3138 9.45223 13.3347L19.7154 23.5979C19.9685 23.874 20.2749 24.096 20.6162 24.2504C20.9574 24.4049 21.3265 24.4886 21.701 24.4965C22.0754 24.5043 22.4477 24.4363 22.7951 24.2963C23.1426 24.1564 23.4581 23.9475 23.7226 23.6822C23.9871 23.417 24.1951 23.101 24.3341 22.7531C24.473 22.4053 24.5402 22.0329 24.5313 21.6584C24.5224 21.284 24.4376 20.9151 24.2823 20.5743C24.1269 20.2335 23.9041 19.9276 23.6273 19.6753Z" stroke="#202222" stroke-width="4.03004" stroke-linecap="round" stroke-linejoin="round"/>
<path d="M12.5783 22.2549H7.20496C6.06487 22.2549 4.97154 21.802 4.16537 20.9958C3.35922 20.1897 2.90625 19.0963 2.90625 17.9562V7.20939C2.90625 6.06927 3.35922 4.97589 4.16537 4.16977C4.97154 3.36355 6.06487 2.91068 7.20496 2.91068H19.0264C21.4014 2.91068 22.2504 4.8451 22.2504 7.20939V12.5828" stroke="#202222" stroke-width="4.03004" stroke-linecap="round" stroke-linejoin="round"/>
</g>
<defs>
<clipPath id="clip0_257_4612">
<rect width="25.7923" height="25.7923" fill="white" transform="matrix(1 0 0 -1 0.757324 26.5537)"/>
</clipPath>
</defs>
</svg>
