<svg width="26" height="25" viewBox="0 0 26 25" fill="none" xmlns="http://www.w3.org/2000/svg">
<mask id="mask0_257_4745" style="mask-type:luminance" maskUnits="userSpaceOnUse" x="0" y="0" width="26" height="25">
<path d="M25.1426 0.00683594H0.52832V24.6211H25.1426V0.00683594Z" fill="white"/>
</mask>
<g mask="url(#mask0_257_4745)">
<path d="M25.1426 0.00683594H0.52832V24.6211H25.1426V0.00683594Z" fill="#02D6DE"/>
<path d="M11.2967 17.4421C14.9785 17.4421 17.9631 14.4575 17.9631 10.7757C17.9631 7.09401 14.9785 4.10938 11.2967 4.10938C7.61501 4.10938 4.63037 7.09401 4.63037 10.7757C4.63037 14.4575 7.61501 17.4421 11.2967 17.4421Z" stroke="black" stroke-width="0.695319" stroke-linejoin="round"/>
<path d="M20.6778 20.8806C20.8781 21.0808 21.2028 21.0808 21.4031 20.8806C21.6033 20.6803 21.6033 20.3556 21.4031 20.1553L20.6778 20.8806ZM21.4031 20.1553L16.2751 15.0273L15.5498 15.7526L20.6778 20.8806L21.4031 20.1553Z" fill="black"/>
</g>
</svg>
